<svg id="svg" version="1.1" xmlns="http://www.w3.org/2000/svg" style="display: block;" viewBox="0 0 16 16"><path d="M0,0 L16,0 L16,16 L0,16 Z " transform="translate(0,0)" style="fill: #FE7E48;"/><path d="M0,0 L1,0 L1,1 L2,1 L2,2 L3,2 L3,3 L4,3 L4,4 L5,4 L5,5 L6,5 L6,6 L7,6 L7,7 L8,7 L8,9 L7,9 L7,11 L0,11 Z " transform="translate(0,5)" style="fill: #000000;"/><path d="M0,0 L11,0 L11,7 L9,7 L9,8 L7,8 L7,7 L6,7 L6,6 L5,6 L5,5 L4,5 L4,4 L3,4 L3,3 L2,3 L2,2 L1,2 L1,1 L0,1 Z " transform="translate(5,0)" style="fill: #000000;"/><path d="M0,0 L2,0 L2,1 L0,1 Z " transform="translate(10,15)" style="fill: #000000;"/><path d="M0,0 L1,0 L1,2 L0,2 Z " transform="translate(15,10)" style="fill: #000000;"/></svg>